<?xml version="1.0" standalone="no"?>
 <!DOCTYPE svg PUBLIC "-//W3C//DTD SVG 1.1//EN" 
 "http://www.w3.org/Graphics/SVG/1.1/DTD/svg11.dtd"> 
<svg xmlns="http://www.w3.org/2000/svg" version="1.1" 
    width="3.59918cm" height="5.41528cm" viewBox="0 0 14170 21320 ">
<title>SVG Picture created as lpc-programmer-B_Cu.svg date 2014/11/06 12:41:54 </title>
  <desc>Picture generated by PCBNEW </desc>
<g style="fill:#000000; fill-opacity:1;stroke:#000000; stroke-opacity:1;
stroke-linecap:round; stroke-linejoin:round; "
 transform="translate(0 0) scale(1 1)">
</g>
<g style="fill:#000000; fill-opacity:0.0; 
stroke:#000000; stroke-width:39.3701; stroke-opacity:1; 
stroke-linecap:round; stroke-linejoin:round;">
<path d="M7070 16270
L7070 16368
" />
<path d="M7858 15482
L7070 16270
" />
<path d="M7070 17549
L7070 16368
" />
<path d="M6873 17746
L7070 17549
" />
<path d="M5102 17746
L6873 17746
" />
<path d="M5102 17549
L5102 17746
" />
<path d="M5102 3671
L5102 17549
" />
<path d="M6873 3671
L5102 3671
" />
<path d="M7070 3868
L6873 3671
" />
<path d="M7070 4459
L7070 3868
" />
<path d="M7858 5246
L7070 4459
" />
<path d="M14157 15482
L7858 15482
" />
<path d="M14157 5246
L14157 15482
" />
<path d="M7858 5246
L14157 5246
" />
</g>
<g style="fill:#000000; fill-opacity:1.0; 
stroke:#000000; stroke-width:39.3701; stroke-opacity:1; 
stroke-linecap:round; stroke-linejoin:round;">
<polyline style="fill-rule:evenodd;"
points="6640,16329
6640,16890
4679,16890
4679,16329
6640,16329
" /> 
<polyline style="fill-rule:evenodd;"
points="6640,15279
6640,15840
4679,15840
4679,15279
6640,15279
" /> 
<polyline style="fill-rule:evenodd;"
points="6640,14179
6640,14740
4679,14740
4679,14179
6640,14179
" /> 
<polyline style="fill-rule:evenodd;"
points="6640,13079
6640,13640
4679,13640
4679,13079
6640,13079
" /> 
<polyline style="fill-rule:evenodd;"
points="6640,12029
6640,12590
4679,12590
4679,12029
6640,12029
" /> 
<polyline style="fill-rule:evenodd;"
points="6640,10929
6640,11490
4679,11490
4679,10929
6640,10929
" /> 
<polyline style="fill-rule:evenodd;"
points="6640,9879
6640,10440
4679,10440
4679,9879
6640,9879
" /> 
<polyline style="fill-rule:evenodd;"
points="6640,8779
6640,9340
4679,9340
4679,8779
6640,8779
" /> 
<polyline style="fill-rule:evenodd;"
points="6640,7679
6640,8240
4679,8240
4679,7679
6640,7679
" /> 
<polyline style="fill-rule:evenodd;"
points="6640,6629
6640,7190
4679,7190
4679,6629
6640,6629
" /> 
<polyline style="fill-rule:evenodd;"
points="6640,5529
6640,6090
4679,6090
4679,5529
6640,5529
" /> 
<polyline style="fill-rule:evenodd;"
points="6640,4479
6640,5040
4679,5040
4679,4479
6640,4479
" /> 
<circle cx="11401.3" cy="14301.7" r="155.315" /> 
</g>
<g style="fill:#000000; fill-opacity:1.0; 
stroke:#000000; stroke-width:157.48; stroke-opacity:1; 
stroke-linecap:round; stroke-linejoin:round;">
<path d="M7169 9577
L7169 9675
" />
<path d="M6684 10160
L5660 10160
" />
<path d="M7169 9675
L6684 10160
" />
<path d="M7169 9577
L6676 9085
" />
<path d="M11401 14301
L11401 10758
" />
<path d="M11401 10758
L10220 9577
" />
<path d="M10220 9577
L7169 9577
" />
<path d="M5685 9085
L5660 9060
" />
<path d="M6676 9085
L5685 9085
" />
</g>
<g style="fill:#000000; fill-opacity:1.0; 
stroke:#000000; stroke-width:39.3701; stroke-opacity:1; 
stroke-linecap:round; stroke-linejoin:round;">
<polyline style="fill-rule:evenodd;"
points="13887,15213
7858,15213
7754,15233
7667,15292
6879,16079
6841,16137
6801,16098
6770,16085
6801,16072
6871,16001
6909,15909
6910,15810
6910,15210
6872,15118
6801,15048
6709,15010
6709,15010
6801,14972
6871,14901
6909,14809
6910,14710
6910,14110
6872,14018
6801,13948
6709,13910
6709,13910
6801,13872
6871,13801
6909,13709
6910,13610
6910,13010
6872,12918
6801,12848
6770,12835
6801,12822
6871,12751
6909,12659
6910,12560
6910,11960
6872,11868
6801,11798
6709,11760
6709,11760
6801,11722
6871,11651
6909,11559
6910,11460
6910,10860
6872,10768
6801,10698
6770,10685
6801,10672
6871,10601
6909,10509
6910,10410
6910,9909
6909,9810
6871,9718
6801,9647
6709,9610
6801,9572
6871,9501
6909,9409
6910,9310
6910,9172
6847,9110
5710,9110
5710,9547
5772,9610
5710,9672
5710,10110
6847,10110
6910,10047
6910,9909
6910,10410
6910,10272
6847,10210
5710,10210
5710,10217
5610,10217
5610,10210
5602,10210
5602,10110
5610,10110
5610,9672
5547,9610
5610,9547
5610,9110
5602,9110
5602,9010
5610,9010
5610,9002
5710,9002
5710,9010
6847,9010
6910,8947
6910,8809
6909,8710
6871,8618
6801,8547
6709,8510
6801,8472
6871,8401
6909,8309
6910,8210
6910,7610
6872,7518
6801,7448
6770,7435
6801,7422
6871,7351
6909,7259
6910,7160
6910,6560
6872,6468
6801,6398
6709,6360
6709,6360
6801,6322
6871,6251
6909,6159
6910,6060
6910,5460
6872,5368
6801,5298
6770,5285
6801,5272
6871,5201
6909,5109
6910,5010
6910,4680
7667,5437
7754,5495
7858,5516
13887,5516
13887,15213
" /> 
</g>
<g style="fill:#000000; fill-opacity:0.0; 
stroke:#000000; stroke-width:100; stroke-opacity:1; 
stroke-linecap:round; stroke-linejoin:round;">
<polyline fill="none;"
points="13887,15213
7858,15213
7754,15233
7667,15292
6879,16079
6841,16137
6801,16098
6770,16085
6801,16072
6871,16001
6909,15909
6910,15810
6910,15210
6872,15118
6801,15048
6709,15010
6709,15010
6801,14972
6871,14901
6909,14809
6910,14710
6910,14110
6872,14018
6801,13948
6709,13910
6709,13910
6801,13872
6871,13801
6909,13709
6910,13610
6910,13010
6872,12918
6801,12848
6770,12835
6801,12822
6871,12751
6909,12659
6910,12560
6910,11960
6872,11868
6801,11798
6709,11760
6709,11760
6801,11722
6871,11651
6909,11559
6910,11460
6910,10860
6872,10768
6801,10698
6770,10685
6801,10672
6871,10601
6909,10509
6910,10410
6910,9909
6909,9810
6871,9718
6801,9647
6709,9610
6801,9572
6871,9501
6909,9409
6910,9310
6910,9172
6847,9110
5710,9110
5710,9547
5772,9610
5710,9672
5710,10110
6847,10110
6910,10047
6910,9909
6910,10410
6910,10272
6847,10210
5710,10210
5710,10217
5610,10217
5610,10210
5602,10210
5602,10110
5610,10110
5610,9672
5547,9610
5610,9547
5610,9110
5602,9110
5602,9010
5610,9010
5610,9002
5710,9002
5710,9010
6847,9010
6910,8947
6910,8809
6909,8710
6871,8618
6801,8547
6709,8510
6801,8472
6871,8401
6909,8309
6910,8210
6910,7610
6872,7518
6801,7448
6770,7435
6801,7422
6871,7351
6909,7259
6910,7160
6910,6560
6872,6468
6801,6398
6709,6360
6709,6360
6801,6322
6871,6251
6909,6159
6910,6060
6910,5460
6872,5368
6801,5298
6770,5285
6801,5272
6871,5201
6909,5109
6910,5010
6910,4680
7667,5437
7754,5495
7858,5516
13887,5516
13887,15213
" /> 
</g>
<g style="fill:#FFFFFF; fill-opacity:0.0; 
stroke:#FFFFFF; stroke-width:39.3701; stroke-opacity:1; 
stroke-linecap:round; stroke-linejoin:round;">
</g>
<g style="fill:#FFFFFF; fill-opacity:1.0; 
stroke:#FFFFFF; stroke-width:39.3701; stroke-opacity:1; 
stroke-linecap:round; stroke-linejoin:round;">
<circle cx="11401.3" cy="14301.7" r="105.315" /> 
</g> 
</svg>
