<?xml version="1.0" standalone="no"?>
 <!DOCTYPE svg PUBLIC "-//W3C//DTD SVG 1.1//EN" 
 "http://www.w3.org/Graphics/SVG/1.1/DTD/svg11.dtd"> 
<svg xmlns="http://www.w3.org/2000/svg" version="1.1" 
    width="3.59918cm" height="5.41528cm" viewBox="0 0 14170 21320 ">
<title>SVG Picture created as lpc-programmer-F_Cu.svg date 2014/11/06 12:42:06 </title>
  <desc>Picture generated by PCBNEW </desc>
<g style="fill:#000000; fill-opacity:1;stroke:#000000; stroke-opacity:1;
stroke-linecap:round; stroke-linejoin:round; "
 transform="translate(0 0) scale(1 1)">
</g>
<g style="fill:#000000; fill-opacity:0.0; 
stroke:#000000; stroke-width:39.3701; stroke-opacity:1; 
stroke-linecap:round; stroke-linejoin:round;">
<path d="M7070 5049
L7070 4951
" />
<path d="M7858 5837
L7070 5049
" />
<path d="M7070 3770
L7070 4951
" />
<path d="M6873 3573
L7070 3770
" />
<path d="M5102 3573
L6873 3573
" />
<path d="M5102 3770
L5102 3573
" />
<path d="M5102 17648
L5102 3770
" />
<path d="M6873 17648
L5102 17648
" />
<path d="M7070 17451
L6873 17648
" />
<path d="M7070 16860
L7070 17451
" />
<path d="M7858 16073
L7070 16860
" />
</g>
<g style="fill:#000000; fill-opacity:0.0; 
stroke:#000000; stroke-width:118.11; stroke-opacity:1; 
stroke-linecap:round; stroke-linejoin:round;">
<path d="M12453 12929
L12453 13244
" />
<path d="M12453 13199
L12475 13221
L12520 13244
L12588 13244
L12633 13221
L12655 13176
L12655 12929
" />
<path d="M12655 13176
L12678 13221
L12723 13244
L12790 13244
L12835 13221
L12858 13176
L12858 12929
" />
<path d="M13150 12929
L13105 12951
L13083 12974
L13060 13019
L13060 13154
L13083 13199
L13105 13221
L13150 13244
L13217 13244
L13262 13221
L13285 13199
L13307 13154
L13307 13019
L13285 12974
L13262 12951
L13217 12929
L13150 12929
" />
<path d="M13487 12951
L13532 12929
L13622 12929
L13667 12951
L13690 12996
L13690 13019
L13667 13064
L13622 13086
L13555 13086
L13510 13109
L13487 13154
L13487 13176
L13510 13221
L13555 13244
L13622 13244
L13667 13221
" />
<path d="M13892 12929
L13892 13244
" />
<path d="M13892 13401
L13870 13379
L13892 13356
L13915 13379
L13892 13401
L13892 13356
" />
<path d="M8023 12929
L8023 13244
" />
<path d="M8023 13199
L8046 13221
L8091 13244
L8158 13244
L8203 13221
L8226 13176
L8226 12929
" />
<path d="M8226 13176
L8248 13221
L8293 13244
L8361 13244
L8406 13221
L8428 13176
L8428 12929
" />
<path d="M8653 12929
L8653 13244
" />
<path d="M8653 13401
L8631 13379
L8653 13356
L8676 13379
L8653 13401
L8653 13356
" />
<path d="M8856 12951
L8901 12929
L8991 12929
L9036 12951
L9058 12996
L9058 13019
L9036 13064
L8991 13086
L8923 13086
L8878 13109
L8856 13154
L8856 13176
L8878 13221
L8923 13244
L8991 13244
L9036 13221
" />
<path d="M9328 12929
L9283 12951
L9261 12974
L9238 13019
L9238 13154
L9261 13199
L9283 13221
L9328 13244
L9396 13244
L9441 13221
L9463 13199
L9486 13154
L9486 13019
L9463 12974
L9441 12951
L9396 12929
L9328 12929
" />
<path d="M8111 7319
L7841 7319
" />
<path d="M7976 7319
L7976 7791
L7931 7724
L7886 7679
L7841 7656
" />
<path d="M8381 7589
L8336 7611
L8313 7634
L8291 7679
L8291 7701
L8313 7746
L8336 7769
L8381 7791
L8471 7791
L8516 7769
L8538 7746
L8561 7701
L8561 7679
L8538 7634
L8516 7611
L8471 7589
L8381 7589
L8336 7566
L8313 7544
L8291 7499
L8291 7409
L8313 7364
L8336 7341
L8381 7319
L8471 7319
L8516 7341
L8538 7364
L8561 7409
L8561 7499
L8538 7544
L8516 7566
L8471 7589
" />
<path d="M8786 7341
L8786 7319
L8763 7274
L8741 7251
" />
<path d="M9595 7319
L9325 7319
" />
<path d="M9460 7319
L9460 7791
L9415 7724
L9370 7679
L9325 7656
" />
<path d="M9820 7319
L9910 7319
L9955 7341
L9978 7364
L10023 7431
L10045 7521
L10045 7701
L10023 7746
L10000 7769
L9955 7791
L9865 7791
L9820 7769
L9798 7746
L9775 7701
L9775 7589
L9798 7544
L9820 7521
L9865 7499
L9955 7499
L10000 7521
L10023 7544
L10045 7589
" />
<path d="M10270 7341
L10270 7319
L10248 7274
L10225 7251
" />
<path d="M8909 6854
L8909 6472
L8887 6427
L8864 6404
L8819 6382
L8752 6382
L8707 6404
" />
<path d="M8909 6562
L8864 6539
L8774 6539
L8729 6562
L8707 6584
L8684 6629
L8684 6764
L8707 6809
L8729 6832
L8774 6854
L8864 6854
L8909 6832
" />
<path d="M9134 6854
L9134 6539
" />
<path d="M9134 6809
L9157 6832
L9202 6854
L9269 6854
L9314 6832
L9337 6787
L9337 6539
" />
<path d="M9764 6539
L9764 7012
" />
<path d="M9764 6562
L9719 6539
L9629 6539
L9584 6562
L9562 6584
L9539 6629
L9539 6764
L9562 6809
L9584 6832
L9629 6854
L9719 6854
L9764 6832
" />
<path d="M13355 8747
L13468 8747
L13524 8775
L13552 8803
L13608 8888
L13636 9000
L13636 9225
L13608 9282
L13580 9310
L13524 9338
L13412 9338
L13355 9310
L13327 9282
L13299 9225
L13299 9085
L13327 9028
L13355 9000
L13412 8972
L13524 8972
L13580 9000
L13608 9028
L13636 9085
" />
<path d="M13412 10659
L13355 10688
L13327 10716
L13299 10772
L13299 10800
L13327 10856
L13355 10884
L13412 10913
L13524 10913
L13580 10884
L13608 10856
L13636 10800
L13636 10772
L13608 10716
L13580 10688
L13524 10659
L13412 10659
L13355 10631
L13327 10603
L13299 10547
L13299 10435
L13327 10378
L13355 10350
L13412 10322
L13524 10322
L13580 10350
L13608 10378
L13636 10435
L13636 10547
L13608 10603
L13580 10631
L13524 10659
" />
<path d="M13299 12431
L13327 12459
L13383 12487
L13524 12487
L13580 12459
L13608 12431
L13636 12375
L13636 12319
L13608 12234
L13271 11897
L13636 11897
" />
</g>
<g style="fill:#000000; fill-opacity:0.0; 
stroke:#000000; stroke-width:39.3701; stroke-opacity:1; 
stroke-linecap:round; stroke-linejoin:round;">
<path d="M14157 5837
L7858 5837
" />
<path d="M14157 16073
L14157 5837
" />
<path d="M7858 16073
L14157 16073
" />
</g>
<g style="fill:#000000; fill-opacity:1.0; 
stroke:#000000; stroke-width:39.3701; stroke-opacity:1; 
stroke-linecap:round; stroke-linejoin:round;">
<circle cx="11401.3" cy="7018.27" r="780.315" /> 
<circle cx="9039.13" cy="14498.6" r="780.315" /> 
<circle cx="11007.6" cy="14498.6" r="780.315" /> 
<circle cx="12956.5" cy="14518.3" r="780.315" /> 
<polyline style="fill-rule:evenodd;"
points="11658,10306
11658,10816
11969,10816
11969,10306
11658,10306
" /> 
<polyline style="fill-rule:evenodd;"
points="12408,10306
12408,10816
12719,10816
12719,10306
12408,10306
" /> 
<polyline style="fill-rule:evenodd;"
points="9689,10306
9689,10816
10000,10816
10000,10306
9689,10306
" /> 
<polyline style="fill-rule:evenodd;"
points="10439,10306
10439,10816
10750,10816
10750,10306
10439,10306
" /> 
<polyline style="fill-rule:evenodd;"
points="11658,8731
11658,9242
11969,9242
11969,8731
11658,8731
" /> 
<polyline style="fill-rule:evenodd;"
points="12408,8731
12408,9242
12719,9242
12719,8731
12408,8731
" /> 
<polyline style="fill-rule:evenodd;"
points="9689,8731
9689,9242
10000,9242
10000,8731
9689,8731
" /> 
<polyline style="fill-rule:evenodd;"
points="10439,8731
10439,9242
10750,9242
10750,8731
10439,8731
" /> 
<polyline style="fill-rule:evenodd;"
points="11658,11881
11658,12391
11969,12391
11969,11881
11658,11881
" /> 
<polyline style="fill-rule:evenodd;"
points="12408,11881
12408,12391
12719,12391
12719,11881
12408,11881
" /> 
<polyline style="fill-rule:evenodd;"
points="9689,11881
9689,12391
10000,12391
10000,11881
9689,11881
" /> 
<polyline style="fill-rule:evenodd;"
points="10439,11881
10439,12391
10750,12391
10750,11881
10439,11881
" /> 
<polyline style="fill-rule:evenodd;"
points="6640,4440
6640,3879
4679,3879
4679,4440
6640,4440
" /> 
<polyline style="fill-rule:evenodd;"
points="6640,5540
6640,4979
4679,4979
4679,5540
6640,5540
" /> 
<polyline style="fill-rule:evenodd;"
points="6640,6590
6640,6029
4679,6029
4679,6590
6640,6590
" /> 
<polyline style="fill-rule:evenodd;"
points="6640,7690
6640,7129
4679,7129
4679,7690
6640,7690
" /> 
<polyline style="fill-rule:evenodd;"
points="6640,8740
6640,8179
4679,8179
4679,8740
6640,8740
" /> 
<polyline style="fill-rule:evenodd;"
points="6640,9840
6640,9279
4679,9279
4679,9840
6640,9840
" /> 
<polyline style="fill-rule:evenodd;"
points="6640,10940
6640,10379
4679,10379
4679,10940
6640,10940
" /> 
<polyline style="fill-rule:evenodd;"
points="6640,11990
6640,11429
4679,11429
4679,11990
6640,11990
" /> 
<polyline style="fill-rule:evenodd;"
points="6640,13090
6640,12529
4679,12529
4679,13090
6640,13090
" /> 
<polyline style="fill-rule:evenodd;"
points="6640,14140
6640,13579
4679,13579
4679,14140
6640,14140
" /> 
<polyline style="fill-rule:evenodd;"
points="6640,15240
6640,14679
4679,14679
4679,15240
6640,15240
" /> 
<polyline style="fill-rule:evenodd;"
points="6640,16340
6640,15779
4679,15779
4679,16340
6640,16340
" /> 
<polyline style="fill-rule:evenodd;"
points="6640,17390
6640,16829
4679,16829
4679,17390
6640,17390
" /> 
<circle cx="11401.3" cy="7018.27" r="155.315" /> 
</g>
<g style="fill:#000000; fill-opacity:1.0; 
stroke:#000000; stroke-width:157.48; stroke-opacity:1; 
stroke-linecap:round; stroke-linejoin:round;">
<path d="M11184 12136
L11184 14321
" />
<path d="M11184 14321
L11007 14498
" />
<path d="M10595 12136
L11184 12136
" />
<path d="M11184 12136
L11813 12136
" />
<path d="M11224 8986
L11224 9597
" />
<path d="M9039 14026
L9039 14498
" />
<path d="M10220 12845
L9039 14026
" />
<path d="M10220 9971
L10220 12845
" />
<path d="M10397 9793
L10220 9971
" />
<path d="M11027 9793
L10397 9793
" />
<path d="M11224 9597
L11027 9793
" />
<path d="M10595 8986
L11224 8986
" />
<path d="M11224 8986
L11813 8986
" />
<path d="M11224 10561
L11224 11073
" />
<path d="M12188 13750
L12956 14518
" />
<path d="M12188 11545
L12188 13750
" />
<path d="M12070 11427
L12188 11545
" />
<path d="M11578 11427
L12070 11427
" />
<path d="M11224 11073
L11578 11427
" />
<path d="M10595 10561
L11224 10561
" />
<path d="M11224 10561
L11813 10561
" />
<path d="M8645 12136
L8350 12136
" />
<path d="M9845 12136
L8645 12136
" />
<path d="M7182 16059
L5660 16059
" />
<path d="M7759 15482
L7182 16059
" />
<path d="M7759 12726
L7759 15482
" />
<path d="M8350 12136
L7759 12726
" />
<path d="M8645 10561
L8251 10561
" />
<path d="M9845 10561
L8645 10561
" />
<path d="M7250 9559
L5660 9559
" />
<path d="M8251 10561
L7250 9559
" />
<path d="M8645 8986
L7858 8986
" />
<path d="M9845 8986
L8645 8986
" />
<path d="M7331 8459
L5660 8459
" />
<path d="M7858 8986
L7331 8459
" />
<path d="M12563 8986
L12563 8180
" />
<path d="M12563 8180
L11401 7018
" />
<path d="M12563 10561
L12563 8986
" />
<path d="M12563 12136
L12563 10561
" />
</g>
<g style="fill:#000000; fill-opacity:1.0; 
stroke:#000000; stroke-width:39.3701; stroke-opacity:1; 
stroke-linecap:round; stroke-linejoin:round;">
<polyline style="fill-rule:evenodd;"
points="13887,6106
12452,6106
12452,6817
12449,7234
12295,7606
12148,7694
11472,7018
12148,6341
12295,6430
12452,6817
12452,6106
11948,6106
11989,6123
12077,6270
11401,6947
11395,6941
11325,7012
11330,7018
11325,7023
11395,7094
11401,7088
12077,7765
11989,7912
11602,8069
11184,8066
11029,8002
11029,8268
7604,8268
7994,8658
8645,8658
9421,8658
9458,8570
9528,8499
9620,8461
9719,8461
10069,8461
10161,8499
10220,8558
10278,8499
10370,8461
10469,8461
10819,8461
10911,8499
10982,8569
11018,8658
11224,8658
11390,8658
11426,8570
11496,8499
11588,8461
11688,8461
12038,8461
12130,8499
12188,8558
12247,8499
12339,8461
12451,8461
12513,8524
12513,8936
12505,8936
12505,9036
12513,9036
12513,9449
12451,9511
12339,9511
12247,9473
12188,9415
12130,9473
12038,9511
11939,9511
11589,9511
11552,9496
11552,9597
11552,9597
11527,9722
11456,9829
11456,9829
11259,10026
11153,10097
11027,10122
10959,10122
10982,10144
11018,10232
11224,10232
11390,10232
11426,10145
11496,10074
11588,10036
11688,10036
12038,10036
12130,10074
12188,10132
12247,10074
12339,10036
12451,10036
12513,10099
12513,10511
12505,10511
12505,10611
12513,10611
12513,11024
12451,11086
12339,11086
12247,11048
12188,10990
12130,11048
12038,11086
11939,11086
11702,11086
11714,11098
12070,11098
12196,11124
12196,11124
12303,11195
12421,11313
12492,11420
12492,11420
12517,11545
12517,12194
12613,12194
12613,12186
12621,12186
12621,12086
12613,12086
12613,11673
12676,11611
12788,11611
12877,11648
12877,11413
13887,11413
13887,11402
12877,11402
12877,11049
12788,11086
12676,11086
12613,11024
12613,10611
12621,10611
12621,10511
12613,10511
12613,10099
12676,10036
12788,10036
12877,10073
12877,9839
13887,9839
13887,9827
12877,9827
12877,9474
12788,9511
12676,9511
12613,9449
12613,9036
12621,9036
12621,8936
12613,8936
12613,8524
12676,8461
12788,8461
12877,8498
12877,8264
13887,8264
13887,6106
" /> 
</g>
<g style="fill:#000000; fill-opacity:0.0; 
stroke:#000000; stroke-width:100; stroke-opacity:1; 
stroke-linecap:round; stroke-linejoin:round;">
<polyline fill="none;"
points="13887,6106
12452,6106
12452,6817
12449,7234
12295,7606
12148,7694
11472,7018
12148,6341
12295,6430
12452,6817
12452,6106
11948,6106
11989,6123
12077,6270
11401,6947
11395,6941
11325,7012
11330,7018
11325,7023
11395,7094
11401,7088
12077,7765
11989,7912
11602,8069
11184,8066
11029,8002
11029,8268
7604,8268
7994,8658
8645,8658
9421,8658
9458,8570
9528,8499
9620,8461
9719,8461
10069,8461
10161,8499
10220,8558
10278,8499
10370,8461
10469,8461
10819,8461
10911,8499
10982,8569
11018,8658
11224,8658
11390,8658
11426,8570
11496,8499
11588,8461
11688,8461
12038,8461
12130,8499
12188,8558
12247,8499
12339,8461
12451,8461
12513,8524
12513,8936
12505,8936
12505,9036
12513,9036
12513,9449
12451,9511
12339,9511
12247,9473
12188,9415
12130,9473
12038,9511
11939,9511
11589,9511
11552,9496
11552,9597
11552,9597
11527,9722
11456,9829
11456,9829
11259,10026
11153,10097
11027,10122
10959,10122
10982,10144
11018,10232
11224,10232
11390,10232
11426,10145
11496,10074
11588,10036
11688,10036
12038,10036
12130,10074
12188,10132
12247,10074
12339,10036
12451,10036
12513,10099
12513,10511
12505,10511
12505,10611
12513,10611
12513,11024
12451,11086
12339,11086
12247,11048
12188,10990
12130,11048
12038,11086
11939,11086
11702,11086
11714,11098
12070,11098
12196,11124
12196,11124
12303,11195
12421,11313
12492,11420
12492,11420
12517,11545
12517,12194
12613,12194
12613,12186
12621,12186
12621,12086
12613,12086
12613,11673
12676,11611
12788,11611
12877,11648
12877,11413
13887,11413
13887,11402
12877,11402
12877,11049
12788,11086
12676,11086
12613,11024
12613,10611
12621,10611
12621,10511
12613,10511
12613,10099
12676,10036
12788,10036
12877,10073
12877,9839
13887,9839
13887,9827
12877,9827
12877,9474
12788,9511
12676,9511
12613,9449
12613,9036
12621,9036
12621,8936
12613,8936
12613,8524
12676,8461
12788,8461
12877,8498
12877,8264
13887,8264
13887,6106
" /> 
</g>
<g style="fill:#FFFFFF; fill-opacity:0.0; 
stroke:#FFFFFF; stroke-width:39.3701; stroke-opacity:1; 
stroke-linecap:round; stroke-linejoin:round;">
</g>
<g style="fill:#FFFFFF; fill-opacity:1.0; 
stroke:#FFFFFF; stroke-width:39.3701; stroke-opacity:1; 
stroke-linecap:round; stroke-linejoin:round;">
<circle cx="11401.3" cy="7018.27" r="105.315" /> 
</g> 
</svg>
