G04 #@! TF.FileFunction,Copper,L1,Top,Signal*
%FSLAX46Y46*%
G04 Gerber Fmt 4.6, Leading zero omitted, Abs format (unit mm)*
G04 Created by KiCad (PCBNEW 0.201512271232+6404~40~ubuntu14.04.1-stable) date Tue 29 Dec 2015 10:19:08 AM MSK*
%MOMM*%
G01*
G04 APERTURE LIST*
%ADD10C,0.100000*%
%ADD11R,1.000000X1.250000*%
%ADD12R,1.250000X1.000000*%
%ADD13R,1.900000X2.000000*%
%ADD14C,1.900000*%
%ADD15C,1.700000*%
%ADD16C,2.700020*%
%ADD17R,1.300000X0.700000*%
%ADD18R,0.450000X1.750000*%
%ADD19R,1.800860X0.800100*%
%ADD20C,1.524000*%
%ADD21R,0.700000X1.300000*%
%ADD22C,0.250000*%
%ADD23C,0.400000*%
%ADD24C,0.254000*%
G04 APERTURE END LIST*
D10*
D11*
X17700000Y-18700000D03*
X15700000Y-18700000D03*
D12*
X21500000Y-6500000D03*
X21500000Y-4500000D03*
D11*
X12200000Y-9700000D03*
X10200000Y-9700000D03*
D12*
X24650000Y-18350000D03*
X24650000Y-20350000D03*
D13*
X26950000Y-3650000D03*
D14*
X24410000Y-3650000D03*
D13*
X27450000Y-8950000D03*
D14*
X29990000Y-8950000D03*
D13*
X4550000Y-3750000D03*
D14*
X2010000Y-3750000D03*
D15*
X12200000Y-14140000D03*
X12200000Y-11600000D03*
X10201020Y-11600000D03*
X10201020Y-14140000D03*
D16*
X7501000Y-18869480D03*
X7501000Y-6870520D03*
D17*
X14750000Y-6550000D03*
X14750000Y-4650000D03*
X13200000Y-6600000D03*
X13200000Y-4700000D03*
X7000000Y-4850000D03*
X7000000Y-2950000D03*
D18*
X23425000Y-9400000D03*
X22775000Y-9400000D03*
X22125000Y-9400000D03*
X21475000Y-9400000D03*
X20825000Y-9400000D03*
X20175000Y-9400000D03*
X19525000Y-9400000D03*
X18875000Y-9400000D03*
X18225000Y-9400000D03*
X17575000Y-9400000D03*
X16925000Y-9400000D03*
X16275000Y-9400000D03*
X15625000Y-9400000D03*
X14975000Y-9400000D03*
X14975000Y-16600000D03*
X15625000Y-16600000D03*
X16275000Y-16600000D03*
X16925000Y-16600000D03*
X17575000Y-16600000D03*
X18225000Y-16600000D03*
X18875000Y-16600000D03*
X19525000Y-16600000D03*
X20175000Y-16600000D03*
X20825000Y-16600000D03*
X21475000Y-16600000D03*
X22125000Y-16600000D03*
X22775000Y-16600000D03*
X23425000Y-16600000D03*
D19*
X22851140Y-20250000D03*
X22851140Y-18350000D03*
X19848860Y-19300000D03*
D20*
X16450000Y-2450000D03*
X18000000Y-3300000D03*
X31050000Y-12650000D03*
X31050000Y-14500000D03*
X9050000Y-4400000D03*
X10800000Y-4400000D03*
X28800000Y-18850000D03*
X21500000Y-2950000D03*
X19550000Y-2450000D03*
X31050000Y-16300000D03*
D21*
X27600000Y-16300000D03*
X29500000Y-16300000D03*
X27600000Y-12650000D03*
X29500000Y-12650000D03*
X27600000Y-14500000D03*
X29500000Y-14500000D03*
D17*
X19550000Y-6550000D03*
X19550000Y-4650000D03*
X16450000Y-6550000D03*
X16450000Y-4650000D03*
X18000000Y-6550000D03*
X18000000Y-4650000D03*
D22*
X19500000Y-16600000D02*
X19500000Y-17000000D01*
D23*
X19848860Y-19300000D02*
X19050000Y-19300000D01*
X19050000Y-19300000D02*
X18450000Y-18700000D01*
X18450000Y-18700000D02*
X17700000Y-18700000D01*
X12200000Y-11600000D02*
X12200000Y-12200000D01*
X12200000Y-12200000D02*
X11525000Y-12875000D01*
X13675000Y-19850000D02*
X17200000Y-19850000D01*
X11125000Y-17300000D02*
X13675000Y-19850000D01*
X9950000Y-17300000D02*
X11125000Y-17300000D01*
X8500000Y-15850000D02*
X9950000Y-17300000D01*
X8500000Y-13575000D02*
X8500000Y-15850000D01*
X9200000Y-12875000D02*
X8500000Y-13575000D01*
X11525000Y-12875000D02*
X9200000Y-12875000D01*
X17200000Y-19850000D02*
X17700000Y-19350000D01*
X17700000Y-19350000D02*
X17700000Y-18700000D01*
X12200000Y-11600000D02*
X12200000Y-9700000D01*
X12200000Y-9700000D02*
X12200000Y-8450000D01*
X11100000Y-7350000D02*
X11100000Y-4700000D01*
X12200000Y-8450000D02*
X11100000Y-7350000D01*
X11100000Y-4700000D02*
X10800000Y-4400000D01*
X10800000Y-4400000D02*
X10800000Y-4000000D01*
X10800000Y-4000000D02*
X10000000Y-3200000D01*
X7800000Y-3900000D02*
X4700000Y-3900000D01*
X8500000Y-3200000D02*
X7800000Y-3900000D01*
X10000000Y-3200000D02*
X8500000Y-3200000D01*
X4700000Y-3900000D02*
X4550000Y-3750000D01*
D22*
X10800000Y-4400000D02*
X10800000Y-4200000D01*
X10800000Y-4200000D02*
X10100000Y-3300000D01*
X7800000Y-3800000D02*
X4600000Y-3800000D01*
X8300000Y-3300000D02*
X7800000Y-3800000D01*
X10100000Y-3300000D02*
X8300000Y-3300000D01*
X4600000Y-3800000D02*
X4550000Y-3750000D01*
X19848860Y-19300000D02*
X19100000Y-19300000D01*
X19100000Y-19300000D02*
X18500000Y-18700000D01*
X18500000Y-18700000D02*
X17700000Y-18700000D01*
X17700000Y-18700000D02*
X17700000Y-19350000D01*
X17700000Y-19350000D02*
X17200000Y-19850000D01*
X12200000Y-11850000D02*
X12200000Y-11600000D01*
X17700000Y-18700000D02*
X17700000Y-18400000D01*
X17700000Y-18400000D02*
X18225000Y-17875000D01*
X18225000Y-17875000D02*
X18225000Y-16600000D01*
X12200000Y-11700000D02*
X12200000Y-11600000D01*
D23*
X21500000Y-4500000D02*
X21500000Y-2950000D01*
X7501000Y-18869480D02*
X10469480Y-18869480D01*
X12100000Y-20500000D02*
X22601140Y-20500000D01*
X10469480Y-18869480D02*
X12100000Y-20500000D01*
X22601140Y-20500000D02*
X22851140Y-20250000D01*
X7501000Y-18869480D02*
X7600000Y-18770480D01*
X7600000Y-18770480D02*
X7600000Y-12800000D01*
X8750000Y-11650000D02*
X10151020Y-11650000D01*
X7600000Y-12800000D02*
X8750000Y-11650000D01*
X10151020Y-11650000D02*
X10201020Y-11600000D01*
X10201020Y-11600000D02*
X10200000Y-11598980D01*
X10200000Y-11598980D02*
X10200000Y-9700000D01*
X10200000Y-9700000D02*
X9700000Y-9700000D01*
X9700000Y-9700000D02*
X7501000Y-7501000D01*
X7501000Y-7501000D02*
X7501000Y-6870520D01*
X7501000Y-6870520D02*
X7501000Y-5351000D01*
X7501000Y-5351000D02*
X7000000Y-4850000D01*
X7000000Y-4850000D02*
X8600000Y-4850000D01*
X8600000Y-4850000D02*
X9050000Y-4400000D01*
X12100000Y-5200000D02*
X12100000Y-3900000D01*
X12100000Y-3900000D02*
X9700000Y-1500000D01*
X9700000Y-1500000D02*
X1500000Y-1500000D01*
X1500000Y-1500000D02*
X600000Y-2400000D01*
X600000Y-2400000D02*
X600000Y-4500000D01*
X600000Y-4500000D02*
X1400000Y-5300000D01*
X1400000Y-5300000D02*
X6550000Y-5300000D01*
X6550000Y-5300000D02*
X7000000Y-4850000D01*
X21500000Y-4500000D02*
X20550000Y-5450000D01*
X12100000Y-5200000D02*
X12150000Y-5200000D01*
X12100000Y-5300000D02*
X12100000Y-5200000D01*
X12350000Y-5550000D02*
X12100000Y-5300000D01*
X20550000Y-5550000D02*
X12350000Y-5550000D01*
X20550000Y-5450000D02*
X20550000Y-5550000D01*
D22*
X9500000Y-11600000D02*
X10201020Y-11600000D01*
X6500000Y-4850000D02*
X7000000Y-4850000D01*
X20450000Y-5650000D02*
X12250000Y-5650000D01*
X21500000Y-4600000D02*
X20450000Y-5650000D01*
X12150000Y-5550000D02*
X12150000Y-5200000D01*
X12250000Y-5650000D02*
X12150000Y-5550000D01*
X9050000Y-4400000D02*
X8500000Y-4400000D01*
X7051000Y-4901000D02*
X7000000Y-4850000D01*
X21500000Y-4500000D02*
X21500000Y-4600000D01*
X21475000Y-16600000D02*
X21475000Y-18975000D01*
X22301140Y-19700000D02*
X22851140Y-20250000D01*
X22200000Y-19700000D02*
X22301140Y-19700000D01*
X21475000Y-18975000D02*
X22200000Y-19700000D01*
X8850000Y-4200000D02*
X9050000Y-4400000D01*
X10200000Y-9700000D02*
X9800000Y-9700000D01*
X9800000Y-9700000D02*
X7501000Y-7401000D01*
X7501000Y-7401000D02*
X7501000Y-6870520D01*
X24650000Y-20350000D02*
X23950000Y-20350000D01*
X23950000Y-20350000D02*
X23850000Y-20250000D01*
X23850000Y-20250000D02*
X22851140Y-20250000D01*
X22451140Y-20250000D02*
X22100000Y-20250000D01*
X16925000Y-16600000D02*
X16925000Y-15125000D01*
X17350000Y-14700000D02*
X19300000Y-14700000D01*
X16925000Y-15125000D02*
X17350000Y-14700000D01*
X18875000Y-16600000D02*
X18875000Y-15125000D01*
X18875000Y-15125000D02*
X19300000Y-14700000D01*
X7501000Y-7001000D02*
X7501000Y-6870520D01*
X19300000Y-12800000D02*
X19300000Y-14700000D01*
X19525000Y-9400000D02*
X19525000Y-12575000D01*
X19525000Y-12575000D02*
X19300000Y-12800000D01*
X10201020Y-12201020D02*
X10201020Y-11600000D01*
X22125000Y-16600000D02*
X22125000Y-14925000D01*
X21900000Y-14700000D02*
X21000000Y-14700000D01*
X22125000Y-14925000D02*
X21900000Y-14700000D01*
X21475000Y-16600000D02*
X21475000Y-15175000D01*
X21000000Y-14700000D02*
X19300000Y-14700000D01*
X21475000Y-15175000D02*
X21000000Y-14700000D01*
X16925000Y-16600000D02*
X16925000Y-17575000D01*
X16925000Y-17575000D02*
X15800000Y-18700000D01*
X15800000Y-18700000D02*
X15700000Y-18700000D01*
X10201020Y-11600000D02*
X10201020Y-9701020D01*
X10201020Y-9701020D02*
X10200000Y-9700000D01*
X21500000Y-16600000D02*
X21500000Y-16700000D01*
X21500000Y-16600000D02*
X21400000Y-16600000D01*
X10201020Y-10998980D02*
X10201020Y-11600000D01*
X7501000Y-18869480D02*
X7501000Y-18699000D01*
D23*
X21475000Y-9400000D02*
X21475000Y-6525000D01*
X21475000Y-6525000D02*
X21500000Y-6500000D01*
X21500000Y-6500000D02*
X25650000Y-6500000D01*
X25650000Y-6500000D02*
X27450000Y-8300000D01*
X27450000Y-8300000D02*
X27450000Y-8950000D01*
X27450000Y-8950000D02*
X27450000Y-6575000D01*
X26950000Y-6075000D02*
X26950000Y-3650000D01*
X27450000Y-6575000D02*
X26950000Y-6075000D01*
X28800000Y-18850000D02*
X31000000Y-18850000D01*
X31000000Y-18850000D02*
X32550000Y-17300000D01*
X28700000Y-10825000D02*
X27450000Y-9575000D01*
X31600000Y-10825000D02*
X28700000Y-10825000D01*
X32550000Y-11775000D02*
X31600000Y-10825000D01*
X32550000Y-17300000D02*
X32550000Y-11775000D01*
X27450000Y-9575000D02*
X27450000Y-8950000D01*
X24650000Y-18350000D02*
X26650000Y-18350000D01*
X26650000Y-18350000D02*
X27150000Y-18850000D01*
X27150000Y-18850000D02*
X28800000Y-18850000D01*
X22851140Y-18350000D02*
X24650000Y-18350000D01*
D22*
X27450000Y-8700000D02*
X27450000Y-8950000D01*
X26950000Y-4350000D02*
X26950000Y-3650000D01*
X26650000Y-18350000D02*
X27150000Y-18850000D01*
X27150000Y-18850000D02*
X28800000Y-18850000D01*
X24650000Y-18350000D02*
X24650000Y-15350000D01*
X24650000Y-15350000D02*
X21475000Y-12175000D01*
X21475000Y-12175000D02*
X21475000Y-9400000D01*
X21475000Y-6525000D02*
X21500000Y-6500000D01*
D23*
X14750000Y-4650000D02*
X14750000Y-1975000D01*
X24410000Y-2660000D02*
X24410000Y-3650000D01*
X22800000Y-1050000D02*
X24410000Y-2660000D01*
X15675000Y-1050000D02*
X22800000Y-1050000D01*
X14750000Y-1975000D02*
X15675000Y-1050000D01*
D22*
X24410000Y-4240000D02*
X24410000Y-3650000D01*
D23*
X13200000Y-4700000D02*
X13200000Y-2500000D01*
X29990000Y-6365000D02*
X29990000Y-8950000D01*
X29325000Y-5700000D02*
X29990000Y-6365000D01*
X29325000Y-2475000D02*
X29325000Y-5700000D01*
X27200000Y-350000D02*
X29325000Y-2475000D01*
X15350000Y-350000D02*
X27200000Y-350000D01*
X13200000Y-2500000D02*
X15350000Y-350000D01*
D22*
X30200000Y-8850000D02*
X30200000Y-8900000D01*
D23*
X7000000Y-2950000D02*
X6450000Y-2950000D01*
X6450000Y-2950000D02*
X5800000Y-2300000D01*
X2950000Y-2300000D02*
X2010000Y-3240000D01*
X5800000Y-2300000D02*
X2950000Y-2300000D01*
X2010000Y-3240000D02*
X2010000Y-3750000D01*
D22*
X2010000Y-3750000D02*
X2010000Y-3740000D01*
D23*
X15625000Y-16600000D02*
X15625000Y-15525000D01*
X15625000Y-15525000D02*
X14240000Y-14140000D01*
X14240000Y-14140000D02*
X12200000Y-14140000D01*
D22*
X14240000Y-14140000D02*
X12200000Y-14140000D01*
X15625000Y-15525000D02*
X14240000Y-14140000D01*
D23*
X14975000Y-16600000D02*
X14975000Y-15825000D01*
X14975000Y-15825000D02*
X14750000Y-15600000D01*
X11250000Y-15600000D02*
X10201020Y-14551020D01*
X14750000Y-15600000D02*
X11250000Y-15600000D01*
X10201020Y-14551020D02*
X10201020Y-14140000D01*
D22*
X10201020Y-14140000D02*
X10201020Y-14501020D01*
X14975000Y-16600000D02*
X14975000Y-15875000D01*
D23*
X16450000Y-4650000D02*
X16450000Y-2450000D01*
X18000000Y-4650000D02*
X18000000Y-3300000D01*
X29500000Y-12650000D02*
X31050000Y-12650000D01*
X29500000Y-14500000D02*
X31050000Y-14500000D01*
X19550000Y-4650000D02*
X19550000Y-2450000D01*
X29500000Y-16300000D02*
X31050000Y-16300000D01*
D22*
X17575000Y-9400000D02*
X17575000Y-8325000D01*
X14750000Y-7250000D02*
X14750000Y-6550000D01*
X15150000Y-7650000D02*
X14750000Y-7250000D01*
X16900000Y-7650000D02*
X15150000Y-7650000D01*
X17575000Y-8325000D02*
X16900000Y-7650000D01*
X16925000Y-9400000D02*
X16925000Y-8375000D01*
X13200000Y-7500000D02*
X13200000Y-6600000D01*
X13850000Y-8150000D02*
X13200000Y-7500000D01*
X16700000Y-8150000D02*
X13850000Y-8150000D01*
X16925000Y-8375000D02*
X16700000Y-8150000D01*
X23425000Y-9400000D02*
X23425000Y-8575000D01*
X23425000Y-8575000D02*
X23550000Y-8450000D01*
X23550000Y-8450000D02*
X24150000Y-8450000D01*
X24150000Y-8450000D02*
X24750000Y-9050000D01*
X24750000Y-9050000D02*
X24750000Y-13800000D01*
X24750000Y-13800000D02*
X25400000Y-14450000D01*
X25400000Y-14450000D02*
X25400000Y-15850000D01*
X25400000Y-15850000D02*
X25850000Y-16300000D01*
X25850000Y-16300000D02*
X27600000Y-16300000D01*
X22125000Y-9400000D02*
X22125000Y-8275000D01*
X26600000Y-12650000D02*
X27600000Y-12650000D01*
X25750000Y-11800000D02*
X26600000Y-12650000D01*
X25750000Y-8650000D02*
X25750000Y-11800000D01*
X24550000Y-7450000D02*
X25750000Y-8650000D01*
X22950000Y-7450000D02*
X24550000Y-7450000D01*
X22125000Y-8275000D02*
X22950000Y-7450000D01*
X22775000Y-9400000D02*
X22775000Y-8325000D01*
X26150000Y-14500000D02*
X27600000Y-14500000D01*
X25250000Y-13600000D02*
X26150000Y-14500000D01*
X25250000Y-8850000D02*
X25250000Y-13600000D01*
X24350000Y-7950000D02*
X25250000Y-8850000D01*
X23150000Y-7950000D02*
X24350000Y-7950000D01*
X22775000Y-8325000D02*
X23150000Y-7950000D01*
X19550000Y-6550000D02*
X19550000Y-6800000D01*
X19550000Y-6800000D02*
X20825000Y-8075000D01*
X20825000Y-8075000D02*
X20825000Y-9400000D01*
X16450000Y-6550000D02*
X16450000Y-7150000D01*
X18225000Y-8275000D02*
X18225000Y-9400000D01*
X17100000Y-7150000D02*
X18225000Y-8275000D01*
X16900000Y-7150000D02*
X17100000Y-7150000D01*
X16450000Y-7150000D02*
X16900000Y-7150000D01*
X18000000Y-6550000D02*
X18000000Y-6850000D01*
X18000000Y-6850000D02*
X19150000Y-8000000D01*
X19150000Y-8000000D02*
X19850000Y-8000000D01*
X19850000Y-8000000D02*
X20175000Y-8325000D01*
X20175000Y-8325000D02*
X20175000Y-9400000D01*
D24*
G36*
X1110997Y-5092914D02*
X1693341Y-5334724D01*
X2323893Y-5335275D01*
X2906657Y-5094481D01*
X3004337Y-4996971D01*
X3135910Y-5201441D01*
X3348110Y-5346431D01*
X3600000Y-5397440D01*
X5500000Y-5397440D01*
X5726788Y-5354767D01*
X5811673Y-5559698D01*
X5959779Y-5707804D01*
X5792210Y-5785992D01*
X5507253Y-6522472D01*
X5525826Y-7311940D01*
X5792210Y-7955048D01*
X6095399Y-8096516D01*
X7321395Y-6870520D01*
X7307253Y-6856378D01*
X7486858Y-6676773D01*
X7501000Y-6690915D01*
X7515143Y-6676773D01*
X7694748Y-6856378D01*
X7680605Y-6870520D01*
X8906601Y-8096516D01*
X9209790Y-7955048D01*
X9494747Y-7218568D01*
X9476174Y-6429100D01*
X9211721Y-5790654D01*
X9397368Y-5781362D01*
X9781143Y-5622397D01*
X9840332Y-5416039D01*
X10007630Y-5583629D01*
X10265000Y-5690498D01*
X10265000Y-7350000D01*
X10328561Y-7669541D01*
X10380887Y-7747852D01*
X10509566Y-7940434D01*
X11220747Y-8651615D01*
X11202031Y-8679006D01*
X11059698Y-8536673D01*
X10826309Y-8440000D01*
X10485750Y-8440000D01*
X10327000Y-8598750D01*
X10327000Y-9573000D01*
X10347000Y-9573000D01*
X10347000Y-9827000D01*
X10327000Y-9827000D01*
X10327000Y-9847000D01*
X10073000Y-9847000D01*
X10073000Y-9827000D01*
X9223750Y-9827000D01*
X9065000Y-9985750D01*
X9065000Y-10451310D01*
X9108049Y-10555239D01*
X9042350Y-10620938D01*
X9157060Y-10735648D01*
X8905761Y-10815920D01*
X8704302Y-11371279D01*
X8730705Y-11961458D01*
X8809269Y-12151129D01*
X8609565Y-12284566D01*
X7909566Y-12984566D01*
X7728561Y-13255459D01*
X7665000Y-13575000D01*
X7665000Y-15850000D01*
X7728561Y-16169541D01*
X7892862Y-16415434D01*
X7909566Y-16440434D01*
X8830002Y-17360870D01*
X8726995Y-17463877D01*
X8585528Y-17160690D01*
X7849048Y-16875733D01*
X7059580Y-16894306D01*
X6416472Y-17160690D01*
X6275004Y-17463879D01*
X7501000Y-18689875D01*
X7515143Y-18675733D01*
X7694748Y-18855338D01*
X7680605Y-18869480D01*
X8906601Y-20095476D01*
X9209790Y-19954008D01*
X9494747Y-19217528D01*
X9476174Y-18428060D01*
X9209790Y-17784952D01*
X8906603Y-17643485D01*
X9009610Y-17540478D01*
X9359566Y-17890434D01*
X9630460Y-18071440D01*
X9950000Y-18135000D01*
X10779132Y-18135000D01*
X13084566Y-20440434D01*
X13355460Y-20621440D01*
X13675000Y-20685000D01*
X17200000Y-20685000D01*
X17519541Y-20621439D01*
X17790434Y-20440434D01*
X18271970Y-19958898D01*
X18350858Y-19944054D01*
X18484340Y-20151491D01*
X18696540Y-20296481D01*
X18948430Y-20347490D01*
X20749290Y-20347490D01*
X20984607Y-20303212D01*
X21200731Y-20164140D01*
X21328542Y-19977082D01*
X21474460Y-20123000D01*
X22724140Y-20123000D01*
X22724140Y-20103000D01*
X22978140Y-20103000D01*
X22978140Y-20123000D01*
X23448750Y-20123000D01*
X23548750Y-20223000D01*
X24523000Y-20223000D01*
X24523000Y-20203000D01*
X24777000Y-20203000D01*
X24777000Y-20223000D01*
X25751250Y-20223000D01*
X25910000Y-20064250D01*
X25910000Y-19723691D01*
X25813327Y-19490302D01*
X25672090Y-19349064D01*
X25726441Y-19314090D01*
X25814644Y-19185000D01*
X26304132Y-19185000D01*
X26559566Y-19440434D01*
X26830460Y-19621440D01*
X27150000Y-19685000D01*
X27659609Y-19685000D01*
X28007630Y-20033629D01*
X28520900Y-20246757D01*
X29076661Y-20247242D01*
X29590303Y-20035010D01*
X29940925Y-19685000D01*
X31000000Y-19685000D01*
X31319541Y-19621439D01*
X31590434Y-19440434D01*
X32290000Y-18740868D01*
X32290000Y-20790000D01*
X25910000Y-20790000D01*
X25910000Y-20635750D01*
X25751250Y-20477000D01*
X24777000Y-20477000D01*
X24777000Y-20497000D01*
X24523000Y-20497000D01*
X24523000Y-20477000D01*
X24327820Y-20477000D01*
X24227820Y-20377000D01*
X22978140Y-20377000D01*
X22978140Y-20397000D01*
X22724140Y-20397000D01*
X22724140Y-20377000D01*
X21474460Y-20377000D01*
X21315710Y-20535750D01*
X21315710Y-20776359D01*
X21321360Y-20790000D01*
X8074366Y-20790000D01*
X8585528Y-20578270D01*
X8726996Y-20275081D01*
X7501000Y-19049085D01*
X6275004Y-20275081D01*
X6416472Y-20578270D01*
X6963695Y-20790000D01*
X710000Y-20790000D01*
X710000Y-18521432D01*
X5507253Y-18521432D01*
X5525826Y-19310900D01*
X5792210Y-19954008D01*
X6095399Y-20095476D01*
X7321395Y-18869480D01*
X6095399Y-17643484D01*
X5792210Y-17784952D01*
X5507253Y-18521432D01*
X710000Y-18521432D01*
X710000Y-8948690D01*
X9065000Y-8948690D01*
X9065000Y-9414250D01*
X9223750Y-9573000D01*
X10073000Y-9573000D01*
X10073000Y-8598750D01*
X9914250Y-8440000D01*
X9573691Y-8440000D01*
X9340302Y-8536673D01*
X9161673Y-8715301D01*
X9065000Y-8948690D01*
X710000Y-8948690D01*
X710000Y-8276121D01*
X6275004Y-8276121D01*
X6416472Y-8579310D01*
X7152952Y-8864267D01*
X7942420Y-8845694D01*
X8585528Y-8579310D01*
X8726996Y-8276121D01*
X7501000Y-7050125D01*
X6275004Y-8276121D01*
X710000Y-8276121D01*
X710000Y-4691216D01*
X1110997Y-5092914D01*
X1110997Y-5092914D01*
G37*
X1110997Y-5092914D02*
X1693341Y-5334724D01*
X2323893Y-5335275D01*
X2906657Y-5094481D01*
X3004337Y-4996971D01*
X3135910Y-5201441D01*
X3348110Y-5346431D01*
X3600000Y-5397440D01*
X5500000Y-5397440D01*
X5726788Y-5354767D01*
X5811673Y-5559698D01*
X5959779Y-5707804D01*
X5792210Y-5785992D01*
X5507253Y-6522472D01*
X5525826Y-7311940D01*
X5792210Y-7955048D01*
X6095399Y-8096516D01*
X7321395Y-6870520D01*
X7307253Y-6856378D01*
X7486858Y-6676773D01*
X7501000Y-6690915D01*
X7515143Y-6676773D01*
X7694748Y-6856378D01*
X7680605Y-6870520D01*
X8906601Y-8096516D01*
X9209790Y-7955048D01*
X9494747Y-7218568D01*
X9476174Y-6429100D01*
X9211721Y-5790654D01*
X9397368Y-5781362D01*
X9781143Y-5622397D01*
X9840332Y-5416039D01*
X10007630Y-5583629D01*
X10265000Y-5690498D01*
X10265000Y-7350000D01*
X10328561Y-7669541D01*
X10380887Y-7747852D01*
X10509566Y-7940434D01*
X11220747Y-8651615D01*
X11202031Y-8679006D01*
X11059698Y-8536673D01*
X10826309Y-8440000D01*
X10485750Y-8440000D01*
X10327000Y-8598750D01*
X10327000Y-9573000D01*
X10347000Y-9573000D01*
X10347000Y-9827000D01*
X10327000Y-9827000D01*
X10327000Y-9847000D01*
X10073000Y-9847000D01*
X10073000Y-9827000D01*
X9223750Y-9827000D01*
X9065000Y-9985750D01*
X9065000Y-10451310D01*
X9108049Y-10555239D01*
X9042350Y-10620938D01*
X9157060Y-10735648D01*
X8905761Y-10815920D01*
X8704302Y-11371279D01*
X8730705Y-11961458D01*
X8809269Y-12151129D01*
X8609565Y-12284566D01*
X7909566Y-12984566D01*
X7728561Y-13255459D01*
X7665000Y-13575000D01*
X7665000Y-15850000D01*
X7728561Y-16169541D01*
X7892862Y-16415434D01*
X7909566Y-16440434D01*
X8830002Y-17360870D01*
X8726995Y-17463877D01*
X8585528Y-17160690D01*
X7849048Y-16875733D01*
X7059580Y-16894306D01*
X6416472Y-17160690D01*
X6275004Y-17463879D01*
X7501000Y-18689875D01*
X7515143Y-18675733D01*
X7694748Y-18855338D01*
X7680605Y-18869480D01*
X8906601Y-20095476D01*
X9209790Y-19954008D01*
X9494747Y-19217528D01*
X9476174Y-18428060D01*
X9209790Y-17784952D01*
X8906603Y-17643485D01*
X9009610Y-17540478D01*
X9359566Y-17890434D01*
X9630460Y-18071440D01*
X9950000Y-18135000D01*
X10779132Y-18135000D01*
X13084566Y-20440434D01*
X13355460Y-20621440D01*
X13675000Y-20685000D01*
X17200000Y-20685000D01*
X17519541Y-20621439D01*
X17790434Y-20440434D01*
X18271970Y-19958898D01*
X18350858Y-19944054D01*
X18484340Y-20151491D01*
X18696540Y-20296481D01*
X18948430Y-20347490D01*
X20749290Y-20347490D01*
X20984607Y-20303212D01*
X21200731Y-20164140D01*
X21328542Y-19977082D01*
X21474460Y-20123000D01*
X22724140Y-20123000D01*
X22724140Y-20103000D01*
X22978140Y-20103000D01*
X22978140Y-20123000D01*
X23448750Y-20123000D01*
X23548750Y-20223000D01*
X24523000Y-20223000D01*
X24523000Y-20203000D01*
X24777000Y-20203000D01*
X24777000Y-20223000D01*
X25751250Y-20223000D01*
X25910000Y-20064250D01*
X25910000Y-19723691D01*
X25813327Y-19490302D01*
X25672090Y-19349064D01*
X25726441Y-19314090D01*
X25814644Y-19185000D01*
X26304132Y-19185000D01*
X26559566Y-19440434D01*
X26830460Y-19621440D01*
X27150000Y-19685000D01*
X27659609Y-19685000D01*
X28007630Y-20033629D01*
X28520900Y-20246757D01*
X29076661Y-20247242D01*
X29590303Y-20035010D01*
X29940925Y-19685000D01*
X31000000Y-19685000D01*
X31319541Y-19621439D01*
X31590434Y-19440434D01*
X32290000Y-18740868D01*
X32290000Y-20790000D01*
X25910000Y-20790000D01*
X25910000Y-20635750D01*
X25751250Y-20477000D01*
X24777000Y-20477000D01*
X24777000Y-20497000D01*
X24523000Y-20497000D01*
X24523000Y-20477000D01*
X24327820Y-20477000D01*
X24227820Y-20377000D01*
X22978140Y-20377000D01*
X22978140Y-20397000D01*
X22724140Y-20397000D01*
X22724140Y-20377000D01*
X21474460Y-20377000D01*
X21315710Y-20535750D01*
X21315710Y-20776359D01*
X21321360Y-20790000D01*
X8074366Y-20790000D01*
X8585528Y-20578270D01*
X8726996Y-20275081D01*
X7501000Y-19049085D01*
X6275004Y-20275081D01*
X6416472Y-20578270D01*
X6963695Y-20790000D01*
X710000Y-20790000D01*
X710000Y-18521432D01*
X5507253Y-18521432D01*
X5525826Y-19310900D01*
X5792210Y-19954008D01*
X6095399Y-20095476D01*
X7321395Y-18869480D01*
X6095399Y-17643484D01*
X5792210Y-17784952D01*
X5507253Y-18521432D01*
X710000Y-18521432D01*
X710000Y-8948690D01*
X9065000Y-8948690D01*
X9065000Y-9414250D01*
X9223750Y-9573000D01*
X10073000Y-9573000D01*
X10073000Y-8598750D01*
X9914250Y-8440000D01*
X9573691Y-8440000D01*
X9340302Y-8536673D01*
X9161673Y-8715301D01*
X9065000Y-8948690D01*
X710000Y-8948690D01*
X710000Y-8276121D01*
X6275004Y-8276121D01*
X6416472Y-8579310D01*
X7152952Y-8864267D01*
X7942420Y-8845694D01*
X8585528Y-8579310D01*
X8726996Y-8276121D01*
X7501000Y-7050125D01*
X6275004Y-8276121D01*
X710000Y-8276121D01*
X710000Y-4691216D01*
X1110997Y-5092914D01*
G36*
X9358737Y-15398188D02*
X9904339Y-15624742D01*
X10094039Y-15624907D01*
X10659566Y-16190434D01*
X10930460Y-16371440D01*
X11250000Y-16435000D01*
X14102560Y-16435000D01*
X14102560Y-17475000D01*
X14146838Y-17710317D01*
X14285910Y-17926441D01*
X14498110Y-18071431D01*
X14565000Y-18084977D01*
X14565000Y-18414250D01*
X14723750Y-18573000D01*
X15573000Y-18573000D01*
X15573000Y-18553000D01*
X15827000Y-18553000D01*
X15827000Y-18573000D01*
X15847000Y-18573000D01*
X15847000Y-18827000D01*
X15827000Y-18827000D01*
X15827000Y-18847000D01*
X15573000Y-18847000D01*
X15573000Y-18827000D01*
X14723750Y-18827000D01*
X14565000Y-18985750D01*
X14565000Y-19015000D01*
X14020868Y-19015000D01*
X11715434Y-16709566D01*
X11641253Y-16660000D01*
X11444541Y-16528561D01*
X11125000Y-16465000D01*
X10295868Y-16465000D01*
X9335000Y-15504132D01*
X9335000Y-15374410D01*
X9358737Y-15398188D01*
X9358737Y-15398188D01*
G37*
X9358737Y-15398188D02*
X9904339Y-15624742D01*
X10094039Y-15624907D01*
X10659566Y-16190434D01*
X10930460Y-16371440D01*
X11250000Y-16435000D01*
X14102560Y-16435000D01*
X14102560Y-17475000D01*
X14146838Y-17710317D01*
X14285910Y-17926441D01*
X14498110Y-18071431D01*
X14565000Y-18084977D01*
X14565000Y-18414250D01*
X14723750Y-18573000D01*
X15573000Y-18573000D01*
X15573000Y-18553000D01*
X15827000Y-18553000D01*
X15827000Y-18573000D01*
X15847000Y-18573000D01*
X15847000Y-18827000D01*
X15827000Y-18827000D01*
X15827000Y-18847000D01*
X15573000Y-18847000D01*
X15573000Y-18827000D01*
X14723750Y-18827000D01*
X14565000Y-18985750D01*
X14565000Y-19015000D01*
X14020868Y-19015000D01*
X11715434Y-16709566D01*
X11641253Y-16660000D01*
X11444541Y-16528561D01*
X11125000Y-16465000D01*
X10295868Y-16465000D01*
X9335000Y-15504132D01*
X9335000Y-15374410D01*
X9358737Y-15398188D01*
G36*
X13312599Y-8687401D02*
X13559161Y-8852148D01*
X13850000Y-8910000D01*
X14102560Y-8910000D01*
X14102560Y-10275000D01*
X14146838Y-10510317D01*
X14285910Y-10726441D01*
X14498110Y-10871431D01*
X14750000Y-10922440D01*
X15200000Y-10922440D01*
X15303671Y-10902933D01*
X15400000Y-10922440D01*
X15850000Y-10922440D01*
X15953671Y-10902933D01*
X16050000Y-10922440D01*
X16500000Y-10922440D01*
X16603671Y-10902933D01*
X16700000Y-10922440D01*
X17150000Y-10922440D01*
X17253671Y-10902933D01*
X17350000Y-10922440D01*
X17800000Y-10922440D01*
X17903671Y-10902933D01*
X18000000Y-10922440D01*
X18450000Y-10922440D01*
X18553671Y-10902933D01*
X18650000Y-10922440D01*
X19100000Y-10922440D01*
X19171323Y-10909020D01*
X19173690Y-10910000D01*
X19253750Y-10910000D01*
X19274062Y-10889688D01*
X19335317Y-10878162D01*
X19527227Y-10754671D01*
X19698110Y-10871431D01*
X19772808Y-10886558D01*
X19796250Y-10910000D01*
X19876310Y-10910000D01*
X19880335Y-10908333D01*
X19950000Y-10922440D01*
X20400000Y-10922440D01*
X20503671Y-10902933D01*
X20600000Y-10922440D01*
X20715000Y-10922440D01*
X20715000Y-12175000D01*
X20772852Y-12465839D01*
X20937599Y-12712401D01*
X23302758Y-15077560D01*
X23200000Y-15077560D01*
X23096329Y-15097067D01*
X23000000Y-15077560D01*
X22550000Y-15077560D01*
X22478677Y-15090980D01*
X22476310Y-15090000D01*
X22396250Y-15090000D01*
X22375938Y-15110312D01*
X22314683Y-15121838D01*
X22120084Y-15247059D01*
X22059699Y-15186673D01*
X21873153Y-15109403D01*
X21853750Y-15090000D01*
X21746250Y-15090000D01*
X21726847Y-15109403D01*
X21540301Y-15186673D01*
X21478044Y-15248930D01*
X21301890Y-15128569D01*
X21227192Y-15113442D01*
X21203750Y-15090000D01*
X21123690Y-15090000D01*
X21119665Y-15091667D01*
X21050000Y-15077560D01*
X20600000Y-15077560D01*
X20496329Y-15097067D01*
X20400000Y-15077560D01*
X19950000Y-15077560D01*
X19846329Y-15097067D01*
X19750000Y-15077560D01*
X19300000Y-15077560D01*
X19228677Y-15090980D01*
X19226310Y-15090000D01*
X19146250Y-15090000D01*
X19125938Y-15110312D01*
X19064683Y-15121838D01*
X18872773Y-15245329D01*
X18701890Y-15128569D01*
X18627192Y-15113442D01*
X18603750Y-15090000D01*
X18523690Y-15090000D01*
X18519665Y-15091667D01*
X18450000Y-15077560D01*
X18000000Y-15077560D01*
X17896329Y-15097067D01*
X17800000Y-15077560D01*
X17350000Y-15077560D01*
X17278677Y-15090980D01*
X17276310Y-15090000D01*
X17196250Y-15090000D01*
X17175938Y-15110312D01*
X17114683Y-15121838D01*
X16922773Y-15245329D01*
X16751890Y-15128569D01*
X16677192Y-15113442D01*
X16653750Y-15090000D01*
X16573690Y-15090000D01*
X16569665Y-15091667D01*
X16500000Y-15077560D01*
X16310980Y-15077560D01*
X16215434Y-14934566D01*
X14830434Y-13549566D01*
X14809109Y-13535317D01*
X14559541Y-13368561D01*
X14240000Y-13305000D01*
X13461757Y-13305000D01*
X13459656Y-13299914D01*
X13042283Y-12881812D01*
X13014443Y-12870252D01*
X13040086Y-12859656D01*
X13458188Y-12442283D01*
X13684742Y-11896681D01*
X13685257Y-11305911D01*
X13459656Y-10759914D01*
X13288516Y-10588475D01*
X13296431Y-10576890D01*
X13347440Y-10325000D01*
X13347440Y-9075000D01*
X13303162Y-8839683D01*
X13164090Y-8623559D01*
X13035000Y-8535356D01*
X13035000Y-8450000D01*
X13025019Y-8399821D01*
X13312599Y-8687401D01*
X13312599Y-8687401D01*
G37*
X13312599Y-8687401D02*
X13559161Y-8852148D01*
X13850000Y-8910000D01*
X14102560Y-8910000D01*
X14102560Y-10275000D01*
X14146838Y-10510317D01*
X14285910Y-10726441D01*
X14498110Y-10871431D01*
X14750000Y-10922440D01*
X15200000Y-10922440D01*
X15303671Y-10902933D01*
X15400000Y-10922440D01*
X15850000Y-10922440D01*
X15953671Y-10902933D01*
X16050000Y-10922440D01*
X16500000Y-10922440D01*
X16603671Y-10902933D01*
X16700000Y-10922440D01*
X17150000Y-10922440D01*
X17253671Y-10902933D01*
X17350000Y-10922440D01*
X17800000Y-10922440D01*
X17903671Y-10902933D01*
X18000000Y-10922440D01*
X18450000Y-10922440D01*
X18553671Y-10902933D01*
X18650000Y-10922440D01*
X19100000Y-10922440D01*
X19171323Y-10909020D01*
X19173690Y-10910000D01*
X19253750Y-10910000D01*
X19274062Y-10889688D01*
X19335317Y-10878162D01*
X19527227Y-10754671D01*
X19698110Y-10871431D01*
X19772808Y-10886558D01*
X19796250Y-10910000D01*
X19876310Y-10910000D01*
X19880335Y-10908333D01*
X19950000Y-10922440D01*
X20400000Y-10922440D01*
X20503671Y-10902933D01*
X20600000Y-10922440D01*
X20715000Y-10922440D01*
X20715000Y-12175000D01*
X20772852Y-12465839D01*
X20937599Y-12712401D01*
X23302758Y-15077560D01*
X23200000Y-15077560D01*
X23096329Y-15097067D01*
X23000000Y-15077560D01*
X22550000Y-15077560D01*
X22478677Y-15090980D01*
X22476310Y-15090000D01*
X22396250Y-15090000D01*
X22375938Y-15110312D01*
X22314683Y-15121838D01*
X22120084Y-15247059D01*
X22059699Y-15186673D01*
X21873153Y-15109403D01*
X21853750Y-15090000D01*
X21746250Y-15090000D01*
X21726847Y-15109403D01*
X21540301Y-15186673D01*
X21478044Y-15248930D01*
X21301890Y-15128569D01*
X21227192Y-15113442D01*
X21203750Y-15090000D01*
X21123690Y-15090000D01*
X21119665Y-15091667D01*
X21050000Y-15077560D01*
X20600000Y-15077560D01*
X20496329Y-15097067D01*
X20400000Y-15077560D01*
X19950000Y-15077560D01*
X19846329Y-15097067D01*
X19750000Y-15077560D01*
X19300000Y-15077560D01*
X19228677Y-15090980D01*
X19226310Y-15090000D01*
X19146250Y-15090000D01*
X19125938Y-15110312D01*
X19064683Y-15121838D01*
X18872773Y-15245329D01*
X18701890Y-15128569D01*
X18627192Y-15113442D01*
X18603750Y-15090000D01*
X18523690Y-15090000D01*
X18519665Y-15091667D01*
X18450000Y-15077560D01*
X18000000Y-15077560D01*
X17896329Y-15097067D01*
X17800000Y-15077560D01*
X17350000Y-15077560D01*
X17278677Y-15090980D01*
X17276310Y-15090000D01*
X17196250Y-15090000D01*
X17175938Y-15110312D01*
X17114683Y-15121838D01*
X16922773Y-15245329D01*
X16751890Y-15128569D01*
X16677192Y-15113442D01*
X16653750Y-15090000D01*
X16573690Y-15090000D01*
X16569665Y-15091667D01*
X16500000Y-15077560D01*
X16310980Y-15077560D01*
X16215434Y-14934566D01*
X14830434Y-13549566D01*
X14809109Y-13535317D01*
X14559541Y-13368561D01*
X14240000Y-13305000D01*
X13461757Y-13305000D01*
X13459656Y-13299914D01*
X13042283Y-12881812D01*
X13014443Y-12870252D01*
X13040086Y-12859656D01*
X13458188Y-12442283D01*
X13684742Y-11896681D01*
X13685257Y-11305911D01*
X13459656Y-10759914D01*
X13288516Y-10588475D01*
X13296431Y-10576890D01*
X13347440Y-10325000D01*
X13347440Y-9075000D01*
X13303162Y-8839683D01*
X13164090Y-8623559D01*
X13035000Y-8535356D01*
X13035000Y-8450000D01*
X13025019Y-8399821D01*
X13312599Y-8687401D01*
G36*
X10394768Y-11585858D02*
X10380625Y-11600000D01*
X10394768Y-11614143D01*
X10215163Y-11793748D01*
X10201020Y-11779605D01*
X10186878Y-11793748D01*
X10007273Y-11614143D01*
X10021415Y-11600000D01*
X10007273Y-11585858D01*
X10186878Y-11406253D01*
X10201020Y-11420395D01*
X10215163Y-11406253D01*
X10394768Y-11585858D01*
X10394768Y-11585858D01*
G37*
X10394768Y-11585858D02*
X10380625Y-11600000D01*
X10394768Y-11614143D01*
X10215163Y-11793748D01*
X10201020Y-11779605D01*
X10186878Y-11793748D01*
X10007273Y-11614143D01*
X10021415Y-11600000D01*
X10007273Y-11585858D01*
X10186878Y-11406253D01*
X10201020Y-11420395D01*
X10215163Y-11406253D01*
X10394768Y-11585858D01*
G36*
X11946838Y-5285317D02*
X12085910Y-5501441D01*
X12298110Y-5646431D01*
X12311197Y-5649081D01*
X12098559Y-5785910D01*
X11953569Y-5998110D01*
X11935000Y-6089806D01*
X11935000Y-5240914D01*
X11937932Y-5237987D01*
X11946838Y-5285317D01*
X11946838Y-5285317D01*
G37*
X11946838Y-5285317D02*
X12085910Y-5501441D01*
X12298110Y-5646431D01*
X12311197Y-5649081D01*
X12098559Y-5785910D01*
X11953569Y-5998110D01*
X11935000Y-6089806D01*
X11935000Y-5240914D01*
X11937932Y-5237987D01*
X11946838Y-5285317D01*
G36*
X22824725Y-3963893D02*
X23065519Y-4546657D01*
X23510997Y-4992914D01*
X24093341Y-5234724D01*
X24723893Y-5235275D01*
X25306657Y-4994481D01*
X25404337Y-4896971D01*
X25535910Y-5101441D01*
X25748110Y-5246431D01*
X26000000Y-5297440D01*
X26115000Y-5297440D01*
X26115000Y-5825754D01*
X25969541Y-5728561D01*
X25650000Y-5665000D01*
X22664018Y-5665000D01*
X22589090Y-5548559D01*
X22520994Y-5502031D01*
X22663327Y-5359698D01*
X22760000Y-5126309D01*
X22760000Y-4785750D01*
X22601250Y-4627000D01*
X21627000Y-4627000D01*
X21627000Y-4647000D01*
X21373000Y-4647000D01*
X21373000Y-4627000D01*
X21353000Y-4627000D01*
X21353000Y-4373000D01*
X21373000Y-4373000D01*
X21373000Y-4355105D01*
X21415057Y-4353000D01*
X21627000Y-4353000D01*
X21627000Y-4373000D01*
X22601250Y-4373000D01*
X22760000Y-4214250D01*
X22760000Y-3873691D01*
X22684720Y-3691950D01*
X22722397Y-3681143D01*
X22825224Y-3392923D01*
X22824725Y-3963893D01*
X22824725Y-3963893D01*
G37*
X22824725Y-3963893D02*
X23065519Y-4546657D01*
X23510997Y-4992914D01*
X24093341Y-5234724D01*
X24723893Y-5235275D01*
X25306657Y-4994481D01*
X25404337Y-4896971D01*
X25535910Y-5101441D01*
X25748110Y-5246431D01*
X26000000Y-5297440D01*
X26115000Y-5297440D01*
X26115000Y-5825754D01*
X25969541Y-5728561D01*
X25650000Y-5665000D01*
X22664018Y-5665000D01*
X22589090Y-5548559D01*
X22520994Y-5502031D01*
X22663327Y-5359698D01*
X22760000Y-5126309D01*
X22760000Y-4785750D01*
X22601250Y-4627000D01*
X21627000Y-4627000D01*
X21627000Y-4647000D01*
X21373000Y-4647000D01*
X21373000Y-4627000D01*
X21353000Y-4627000D01*
X21353000Y-4373000D01*
X21373000Y-4373000D01*
X21373000Y-4355105D01*
X21415057Y-4353000D01*
X21627000Y-4353000D01*
X21627000Y-4373000D01*
X22601250Y-4373000D01*
X22760000Y-4214250D01*
X22760000Y-3873691D01*
X22684720Y-3691950D01*
X22722397Y-3681143D01*
X22825224Y-3392923D01*
X22824725Y-3963893D01*
G36*
X7147000Y-4893289D02*
X7059580Y-4895346D01*
X6862450Y-4977000D01*
X6853000Y-4977000D01*
X6853000Y-4735000D01*
X7147000Y-4735000D01*
X7147000Y-4893289D01*
X7147000Y-4893289D01*
G37*
X7147000Y-4893289D02*
X7059580Y-4895346D01*
X6862450Y-4977000D01*
X6853000Y-4977000D01*
X6853000Y-4735000D01*
X7147000Y-4735000D01*
X7147000Y-4893289D01*
G36*
X9243748Y-4385858D02*
X9229605Y-4400000D01*
X9243748Y-4414143D01*
X9064143Y-4593748D01*
X9050000Y-4579605D01*
X9035858Y-4593748D01*
X8856253Y-4414143D01*
X8870395Y-4400000D01*
X8856253Y-4385858D01*
X9035858Y-4206253D01*
X9050000Y-4220395D01*
X9064143Y-4206253D01*
X9243748Y-4385858D01*
X9243748Y-4385858D01*
G37*
X9243748Y-4385858D02*
X9229605Y-4400000D01*
X9243748Y-4414143D01*
X9064143Y-4593748D01*
X9050000Y-4579605D01*
X9035858Y-4593748D01*
X8856253Y-4414143D01*
X8870395Y-4400000D01*
X8856253Y-4385858D01*
X9035858Y-4206253D01*
X9050000Y-4220395D01*
X9064143Y-4206253D01*
X9243748Y-4385858D01*
G36*
X12609566Y-1909566D02*
X12428561Y-2180459D01*
X12365000Y-2500000D01*
X12365000Y-3737370D01*
X12314683Y-3746838D01*
X12099017Y-3885615D01*
X11985010Y-3609697D01*
X11592370Y-3216371D01*
X11079100Y-3003243D01*
X10984028Y-3003160D01*
X10590434Y-2609566D01*
X10524386Y-2565434D01*
X10319541Y-2428561D01*
X10000000Y-2365000D01*
X8500000Y-2365000D01*
X8262125Y-2412317D01*
X8253162Y-2364683D01*
X8114090Y-2148559D01*
X7901890Y-2003569D01*
X7650000Y-1952560D01*
X6633428Y-1952560D01*
X6390434Y-1709566D01*
X6312706Y-1657630D01*
X6119541Y-1528561D01*
X5800000Y-1465000D01*
X2950000Y-1465000D01*
X2630460Y-1528560D01*
X2359566Y-1709566D01*
X1904225Y-2164907D01*
X1696107Y-2164725D01*
X1113343Y-2405519D01*
X710000Y-2808158D01*
X710000Y-710000D01*
X13809132Y-710000D01*
X12609566Y-1909566D01*
X12609566Y-1909566D01*
G37*
X12609566Y-1909566D02*
X12428561Y-2180459D01*
X12365000Y-2500000D01*
X12365000Y-3737370D01*
X12314683Y-3746838D01*
X12099017Y-3885615D01*
X11985010Y-3609697D01*
X11592370Y-3216371D01*
X11079100Y-3003243D01*
X10984028Y-3003160D01*
X10590434Y-2609566D01*
X10524386Y-2565434D01*
X10319541Y-2428561D01*
X10000000Y-2365000D01*
X8500000Y-2365000D01*
X8262125Y-2412317D01*
X8253162Y-2364683D01*
X8114090Y-2148559D01*
X7901890Y-2003569D01*
X7650000Y-1952560D01*
X6633428Y-1952560D01*
X6390434Y-1709566D01*
X6312706Y-1657630D01*
X6119541Y-1528561D01*
X5800000Y-1465000D01*
X2950000Y-1465000D01*
X2630460Y-1528560D01*
X2359566Y-1709566D01*
X1904225Y-2164907D01*
X1696107Y-2164725D01*
X1113343Y-2405519D01*
X710000Y-2808158D01*
X710000Y-710000D01*
X13809132Y-710000D01*
X12609566Y-1909566D01*
G36*
X23193718Y-2624586D02*
X23067086Y-2750997D01*
X22907968Y-3134197D01*
X22881362Y-2602632D01*
X22722397Y-2218857D01*
X22480213Y-2149392D01*
X21679605Y-2950000D01*
X21693748Y-2964143D01*
X21514143Y-3143748D01*
X21500000Y-3129605D01*
X21485858Y-3143748D01*
X21306253Y-2964143D01*
X21320395Y-2950000D01*
X21306253Y-2935858D01*
X21485858Y-2756253D01*
X21500000Y-2770395D01*
X22300608Y-1969787D01*
X22276289Y-1885000D01*
X22454132Y-1885000D01*
X23193718Y-2624586D01*
X23193718Y-2624586D01*
G37*
X23193718Y-2624586D02*
X23067086Y-2750997D01*
X22907968Y-3134197D01*
X22881362Y-2602632D01*
X22722397Y-2218857D01*
X22480213Y-2149392D01*
X21679605Y-2950000D01*
X21693748Y-2964143D01*
X21514143Y-3143748D01*
X21500000Y-3129605D01*
X21485858Y-3143748D01*
X21306253Y-2964143D01*
X21320395Y-2950000D01*
X21306253Y-2935858D01*
X21485858Y-2756253D01*
X21500000Y-2770395D01*
X22300608Y-1969787D01*
X22276289Y-1885000D01*
X22454132Y-1885000D01*
X23193718Y-2624586D01*
M02*
